<svg width="48" height="44" viewBox="0 0 48 44" fill="none" xmlns="http://www.w3.org/2000/svg">
<path d="M4.97388 22.5015C2.90919 20.2299 1.8033 17.2478 1.88773 14.1793C1.88773 7.36202 7.05442 1.81389 13.3932 1.81389C15.3813 1.85521 17.3238 2.41672 19.0273 3.44248C20.7308 4.46824 22.1359 5.92244 23.1024 7.66023C23.1744 7.77336 23.2738 7.8665 23.3914 7.93102C23.5091 7.99554 23.641 8.02937 23.7751 8.02937C23.9092 8.02937 24.0412 7.99554 24.1588 7.93102C24.2764 7.8665 24.3758 7.77336 24.4478 7.66023C25.4146 5.91369 26.8268 4.45449 28.5408 3.43119C30.2549 2.40789 32.2095 1.85704 34.2056 1.83469C40.5513 1.83469 45.711 7.38283 45.711 14.2001C45.7945 17.2672 44.6914 20.2482 42.6319 22.5223C42.2227 23.0147 27.9639 37.5577 27.9639 37.5577C27.8695 37.6565 27.8021 37.778 27.768 37.9103C27.734 38.0426 27.7346 38.1815 27.7698 38.3137C27.8074 38.4442 27.8783 38.5627 27.9756 38.6575C28.0729 38.7524 28.1932 38.8202 28.3245 38.8546C28.4567 38.8895 28.5957 38.8886 28.7272 38.8521C28.8589 38.8155 28.9784 38.7445 29.0735 38.6466C29.0735 38.6466 43.3739 24.1659 43.9286 23.514C46.1759 20.9547 47.3963 17.6542 47.3547 14.2487C47.3547 6.55061 41.5014 0.378315 34.3166 0.378315C32.2637 0.395429 30.2454 0.90895 28.4339 1.87505C26.6225 2.84115 25.0717 4.23115 23.9138 5.92644C22.7529 4.20152 21.1868 2.78747 19.3527 1.80816C17.5186 0.828829 15.4724 0.314073 13.3932 0.30896C6.18753 0.30896 0.334251 6.5506 0.334251 14.2278C0.295902 17.6328 1.51587 20.9322 3.76022 23.4933C4.30116 24.1451 22.825 43.1683 22.825 43.1683C23.47 43.8618 24.7391 42.9325 23.9555 42.1002C23.9138 42.0794 5.37612 23.0147 4.97388 22.5015ZM4.97388 22.5015C2.90919 20.2299 1.8033 17.2478 1.88773 14.1793C1.88773 7.36202 7.05442 1.81389 13.3932 1.81389C15.3813 1.85521 17.3238 2.41672 19.0273 3.44248C20.7308 4.46824 22.1359 5.92244 23.1024 7.66023C23.1744 7.77336 23.2738 7.8665 23.3914 7.93102C23.5091 7.99554 23.641 8.02937 23.7751 8.02937C23.9092 8.02937 24.0412 7.99554 24.1588 7.93102C24.2764 7.8665 24.3758 7.77336 24.4478 7.66023C25.4146 5.91369 26.8268 4.45449 28.5408 3.43119C30.2549 2.40789 32.2095 1.85704 34.2056 1.83469C40.5513 1.83469 45.711 7.38283 45.711 14.2001C45.7945 17.2672 44.6914 20.2482 42.6319 22.5223C42.2227 23.0147 27.9639 37.5577 27.9639 37.5577C27.8695 37.6565 27.8021 37.778 27.768 37.9103C27.734 38.0426 27.7346 38.1815 27.7698 38.3137C27.8074 38.4442 27.8783 38.5627 27.9756 38.6575C28.0729 38.7524 28.1932 38.8202 28.3245 38.8546C28.4567 38.8895 28.5957 38.8886 28.7272 38.8521C28.8589 38.8155 28.9784 38.7445 29.0735 38.6466C29.0735 38.6466 43.3739 24.1659 43.9286 23.514C46.1759 20.9547 47.3963 17.6542 47.3547 14.2487C47.3547 6.55061 41.5014 0.378315 34.3166 0.378315C32.2637 0.395429 30.2454 0.90895 28.4339 1.87505C26.6225 2.84115 25.0717 4.23115 23.9138 5.92644C22.7529 4.20152 21.1868 2.78747 19.3527 1.80816C17.5186 0.828829 15.4724 0.314073 13.3932 0.30896C6.18753 0.30896 0.334251 6.5506 0.334251 14.2278C0.295902 17.6328 1.51587 20.9322 3.76022 23.4933C4.30116 24.1451 22.825 43.1683 22.825 43.1683C23.47 43.8618 24.7391 42.9325 23.9555 42.1002C23.9138 42.0794 5.37612 23.0147 4.97388 22.5015ZM34.7951 9.20679C34.6612 9.18573 34.5394 9.11755 34.4513 9.01449C34.3633 8.91154 34.3149 8.78047 34.3149 8.64499C34.3149 8.50951 34.3633 8.37854 34.4513 8.27549C34.5394 8.17254 34.6612 8.10438 34.7951 8.08328C37.8951 8.08328 40.4194 10.9267 40.4194 14.4151C40.4194 16.6343 39.7745 17.7439 38.0823 19.5193C36.8756 20.7677 35.9117 21.7456 35.7521 21.8981C35.6483 22.0057 35.5058 22.0677 35.3562 22.0702C35.2066 22.0728 35.0622 22.0159 34.9546 21.912C34.8469 21.8081 34.785 21.6656 34.7825 21.516C34.7798 21.3666 34.8368 21.2221 34.9407 21.1144L37.0906 18.9576C38.4776 17.5151 39.3029 16.4055 39.3029 14.5885C39.2821 10.9613 36.8132 9.22756 34.7743 9.22756L34.7951 9.20679Z" fill="#23648B" style="fill:#23648B;fill:color(display-p3 0.1373 0.3922 0.5451);fill-opacity:1;"/>
</svg>
