<svg width="60" height="73" viewBox="0 0 60 73" fill="none" xmlns="http://www.w3.org/2000/svg">
<path d="M58.6204 31.7746H30.711V16.2207C32.784 17.275 35.0631 17.8617 37.3875 17.9394C39.7121 18.0171 42.0252 17.5837 44.1639 16.6702C46.6043 15.6156 48.7427 13.9687 50.3855 11.8788C52.0283 9.78876 53.1234 7.3218 53.5716 4.70151C53.6075 4.46292 53.5745 4.21905 53.4764 3.99864C53.3781 3.77825 53.219 3.59051 53.0177 3.45761C51.0839 2.15053 48.8871 1.28344 46.5819 0.917441C44.2767 0.551438 41.9195 0.69543 39.6759 1.33927C37.4325 1.98311 35.3574 3.11112 33.5972 4.64384C31.8369 6.17654 30.4343 8.07663 29.4879 10.2102C28.6133 8.71959 27.443 7.42356 26.049 6.40172C24.6551 5.37987 23.0669 4.6538 21.3822 4.26809C19.6974 3.88238 17.9516 3.84519 16.2519 4.1588C14.5523 4.47242 12.9347 5.1302 11.4984 6.09176C11.2863 6.23244 11.1198 6.43203 11.0196 6.66602C10.9193 6.9 10.8896 7.15817 10.934 7.40883C11.2691 9.34469 12.0485 11.1765 13.2108 12.7604C14.3732 14.3444 15.8868 15.6373 17.633 16.5378C19.3791 17.4382 21.3102 17.9217 23.2746 17.95C25.2392 17.9784 27.1835 17.551 28.9548 16.7016V31.7746H1.31724C1.143 31.7733 0.970248 31.8067 0.809117 31.873C0.648003 31.9395 0.501782 32.0373 0.379052 32.161C0.256337 32.2846 0.159603 32.4316 0.0945326 32.5933C0.0294626 32.755 -0.00262248 32.928 0.000167521 33.1023V42.6144C0.000167521 42.9637 0.138932 43.2987 0.385937 43.5457C0.632927 43.7928 0.967937 43.9315 1.31724 43.9315H4.80854L11.0177 71.6736C11.076 71.961 11.2295 72.2203 11.4533 72.4099C11.6769 72.5995 11.958 72.7084 12.2511 72.7189H45.8886C46.1682 72.7161 46.4394 72.6229 46.6617 72.4534C46.884 72.2839 47.0456 72.0471 47.1221 71.7781C47.1221 71.7781 51.4392 56.0988 51.8051 54.6981C51.8265 54.3949 51.7425 54.0936 51.5672 53.8453C51.3918 53.5971 51.1361 53.4171 50.8433 53.3359C50.5503 53.2548 50.2384 53.2773 49.9604 53.3998C49.6823 53.5224 49.455 53.7372 49.3173 54.0081C48.8469 55.7224 44.948 70.0848 44.948 70.0848H13.3068L7.5054 43.9524H58.6204C58.9569 43.9336 59.2734 43.7866 59.5047 43.5417C59.7361 43.2967 59.8648 42.9723 59.8643 42.6354V33.1023C59.8648 32.7652 59.7361 32.4408 59.5047 32.1958C59.2734 31.9509 58.9569 31.8039 58.6204 31.7851V31.7746ZM38.9061 4.37747C40.8146 3.55784 42.8886 3.19709 44.9618 3.32415C47.0349 3.45123 49.0492 4.0626 50.8434 5.10918C50.3916 7.0473 49.5094 8.85891 48.2624 10.4098C47.0154 11.9607 45.4353 13.2111 43.6394 14.0685C41.8434 14.9258 39.8775 15.368 37.8875 15.3624C35.8974 15.3568 33.9341 14.9034 32.1431 14.036C34.815 12.8239 37.4151 11.4593 39.9305 9.9489C40.7249 9.36353 39.9305 7.97328 38.7807 8.705C38.2371 9.04994 34.5995 10.8688 31.5263 12.4263C32.1159 10.6384 33.0788 8.99622 34.3511 7.60862C35.6234 6.221 37.176 5.11962 38.9061 4.37747ZM19.5368 14.5064C18.1197 13.9124 16.8596 12.9984 15.8549 11.8359C14.8502 10.6735 14.1284 9.29414 13.7459 7.80605C15.0845 7.0587 16.5761 6.627 18.1068 6.54384C19.6377 6.46068 21.1673 6.72828 22.5789 7.32623C23.9906 7.92417 25.247 8.83665 26.2524 9.99405C27.2577 11.1515 27.9854 12.5232 28.38 14.0046C27.044 14.7631 25.5509 15.203 24.0171 15.29C22.4832 15.377 20.9501 15.1089 19.5368 14.5064ZM57.3138 41.2869H2.61341V34.4088H57.3138V41.2869Z" fill="#23648B" style="fill:#23648B;fill:color(display-p3 0.1373 0.3922 0.5451);fill-opacity:1;"/>
</svg>
