<svg width="72" height="72" viewBox="0 0 72 72" fill="none" xmlns="http://www.w3.org/2000/svg">
<path d="M66.3945 11.6867H48.2358V9.10302C48.2358 4.12672 44.4663 0.227051 39.6548 0.227051H31.3339C26.5224 0.227051 22.7528 4.12582 22.7528 9.10302V11.6867H4.8498C2.17599 11.6867 0 13.8627 0 16.5365V24.2176C0 24.9711 0.611571 25.5827 1.36511 25.5827C2.11866 25.5827 2.73023 24.972 2.73023 24.2185V16.5374C2.73023 15.3689 3.68126 14.4178 4.8498 14.4178H11.831V68.3225H4.8498C3.68126 68.3225 2.73023 67.3715 2.73023 66.2021V35.4551C2.73023 34.7017 2.11866 34.0901 1.36511 34.0901C0.611571 34.0901 0 34.7017 0 35.4551V66.2021C0 68.8759 2.17599 71.0519 4.8498 71.0519H66.3945C69.0684 71.0519 71.2444 68.8759 71.2444 66.2021V16.5365C71.2444 13.8627 69.0693 11.6867 66.3945 11.6867ZM46.4157 14.4169V68.3216H24.5748V14.4169H46.4157ZM48.2358 68.3225V14.4169H57.3366V68.3216L48.2358 68.3225ZM25.483 9.10302C25.483 5.65656 28.0531 2.95728 31.3339 2.95728H39.6557C42.9355 2.95728 45.5065 5.65656 45.5065 9.10302V11.6867H25.483V9.10302ZM13.6511 14.4169H22.7546V68.3216H13.6511V14.4169ZM68.5142 66.2021C68.5142 67.3706 67.5631 68.3216 66.3945 68.3216H59.1567V14.4169H66.3945C67.5631 14.4169 68.5142 15.3679 68.5142 16.5365V66.2021Z" fill="#23648B" style="fill:#23648B;fill:color(display-p3 0.1373 0.3922 0.5451);fill-opacity:1;"/>
</svg>
