<svg width="49" height="49" viewBox="0 0 49 49" fill="none" xmlns="http://www.w3.org/2000/svg">
<path d="M42.4012 24.4996H24.3003C24.1915 24.4808 24.0927 24.4243 24.0216 24.3399C23.9504 24.2554 23.9114 24.1486 23.9114 24.0381C23.9114 23.9277 23.9504 23.8208 24.0216 23.7363C24.0927 23.6519 24.1915 23.5953 24.3003 23.5766H42.4012C42.4889 23.5662 42.5776 23.5811 42.657 23.6196C42.7364 23.6581 42.8031 23.7185 42.8492 23.7938C42.8957 23.8667 42.9204 23.9516 42.9204 24.0381C42.9204 24.1247 42.8957 24.2094 42.8492 24.2825C42.8018 24.3565 42.735 24.4161 42.6559 24.4544C42.5768 24.4927 42.4887 24.5084 42.4012 24.4996Z" fill="#23648B" style="fill:#23648B;fill:color(display-p3 0.1373 0.3922 0.5451);fill-opacity:1;"/>
<path d="M33.3542 30.1865H24.3003C24.1915 30.1678 24.0927 30.1112 24.0216 30.0268C23.9504 29.9423 23.9114 29.8355 23.9114 29.7251C23.9114 29.6146 23.9504 29.5077 24.0216 29.4232C24.0927 29.3388 24.1915 29.2823 24.3003 29.2635H33.3542C33.4407 29.2545 33.5279 29.27 33.606 29.3084C33.6841 29.3469 33.7497 29.4066 33.7953 29.4807C33.8345 29.5536 33.8534 29.6357 33.8498 29.7184C33.8464 29.8011 33.8208 29.8813 33.7757 29.9507C33.7306 30.0201 33.6676 30.076 33.5935 30.1128C33.5193 30.1495 33.4366 30.1656 33.3542 30.1594V30.1865Z" fill="#23648B" style="fill:#23648B;fill:color(display-p3 0.1373 0.3922 0.5451);fill-opacity:1;"/>
<path d="M42.401 41.9142H24.3001C24.1881 41.9006 24.0852 41.8465 24.0104 41.7621C23.9357 41.6777 23.8944 41.5688 23.8944 41.4561C23.8944 41.3434 23.9357 41.2346 24.0104 41.1502C24.0852 41.0658 24.1881 41.0117 24.3001 40.998H42.401C42.4658 40.9901 42.5317 40.9961 42.5941 41.0155C42.6564 41.0349 42.714 41.0673 42.7629 41.1106C42.8117 41.1539 42.8509 41.2071 42.8778 41.2666C42.9045 41.3262 42.9184 41.3908 42.9184 41.4561C42.9184 41.5214 42.9045 41.586 42.8778 41.6455C42.8509 41.7052 42.8117 41.7584 42.7629 41.8017C42.714 41.845 42.6564 41.8774 42.5941 41.8968C42.5317 41.9162 42.4658 41.9222 42.401 41.9142Z" fill="#23648B" style="fill:#23648B;fill:color(display-p3 0.1373 0.3922 0.5451);fill-opacity:1;"/>
<path d="M24.3002 47.487C24.188 47.4722 24.085 47.4174 24.0101 47.3326C23.9353 47.2477 23.8937 47.1387 23.893 47.0255C23.8922 46.912 23.9333 46.8021 24.0085 46.717C24.0836 46.6319 24.1874 46.5774 24.3002 46.564H33.9649C34.0777 46.5774 34.1815 46.6319 34.2567 46.717C34.3318 46.8021 34.3729 46.912 34.3722 47.0255C34.3715 47.1387 34.3298 47.2477 34.255 47.3326C34.1802 47.4174 34.0771 47.4722 33.9649 47.487H24.3002Z" fill="#23648B" style="fill:#23648B;fill:color(display-p3 0.1373 0.3922 0.5451);fill-opacity:1;"/>
<path d="M42.4012 7.85815H24.3003C24.1915 7.83941 24.0927 7.78283 24.0216 7.69838C23.9504 7.61393 23.9114 7.50705 23.9114 7.39663C23.9114 7.28621 23.9504 7.17932 24.0216 7.09488C24.0927 7.01043 24.1915 6.95384 24.3003 6.93511H42.4012C42.4887 6.92634 42.5768 6.942 42.6559 6.98034C42.735 7.01868 42.8018 7.07821 42.8492 7.1523C42.8957 7.2253 42.9204 7.31007 42.9204 7.39663C42.9204 7.48319 42.8957 7.56796 42.8492 7.64096C42.8031 7.7162 42.7364 7.77664 42.657 7.81513C42.5776 7.85362 42.4889 7.86855 42.4012 7.85815Z" fill="#23648B" style="fill:#23648B;fill:color(display-p3 0.1373 0.3922 0.5451);fill-opacity:1;"/>
<path d="M33.9649 13.0766H24.3002C24.188 13.0618 24.085 13.007 24.0101 12.9222C23.9353 12.8373 23.8937 12.7282 23.893 12.6151C23.8922 12.5015 23.9333 12.3917 24.0085 12.3066C24.0836 12.2214 24.1874 12.1669 24.3002 12.1536H33.9649C34.0777 12.1669 34.1815 12.2214 34.2567 12.3066C34.3318 12.3917 34.3729 12.5015 34.3722 12.6151C34.3715 12.7282 34.3298 12.8373 34.255 12.9222C34.1802 13.007 34.0771 13.0618 33.9649 13.0766Z" fill="#23648B" style="fill:#23648B;fill:color(display-p3 0.1373 0.3922 0.5451);fill-opacity:1;"/>
<path d="M19.1217 13.6197H7.72629C7.63584 13.6211 7.546 13.6045 7.46209 13.5707C7.37817 13.5369 7.30185 13.4866 7.23762 13.4229C7.17268 13.3592 7.12119 13.2832 7.08622 13.1992C7.05124 13.1153 7.03349 13.0251 7.03402 12.9342V1.53882C7.034 1.44854 7.05199 1.35916 7.08694 1.27592C7.1219 1.19268 7.17311 1.11725 7.23757 1.05404C7.30205 0.99084 7.37848 0.941134 7.46239 0.907835C7.54631 0.874537 7.63602 0.858315 7.72629 0.860121H19.1217C19.3017 0.860121 19.4743 0.931627 19.6016 1.05891C19.7288 1.18619 19.8003 1.35882 19.8003 1.53882V12.9342C19.8013 13.0239 19.7844 13.1129 19.7507 13.196C19.717 13.2792 19.6671 13.3548 19.604 13.4185C19.5409 13.4822 19.4658 13.5329 19.383 13.5673C19.3002 13.6019 19.2114 13.6197 19.1217 13.6197ZM8.40499 12.242H18.4294V2.27182H8.45929L8.40499 12.242Z" fill="#23648B" style="fill:#23648B;fill:color(display-p3 0.1373 0.3922 0.5451);fill-opacity:1;"/>
<path d="M19.1217 30.7701H7.72626C7.63419 30.7716 7.54277 30.7542 7.4576 30.7193C7.37242 30.6843 7.29526 30.6323 7.23081 30.5666C7.16693 30.496 7.11781 30.4135 7.08634 30.3237C7.05487 30.234 7.04168 30.1389 7.04756 30.0439V18.6824C7.04756 18.5025 7.11907 18.3298 7.24635 18.2025C7.37362 18.0753 7.54626 18.0038 7.72626 18.0038H19.1217C19.3016 18.0038 19.4743 18.0753 19.6016 18.2025C19.7288 18.3298 19.8003 18.5025 19.8003 18.6824V30.0439C19.8013 30.2283 19.7308 30.4059 19.6035 30.5393C19.543 30.6084 19.469 30.6645 19.3863 30.7042C19.3034 30.7439 19.2134 30.7663 19.1217 30.7701ZM8.40496 29.3652H18.4294V19.4087H8.45926L8.40496 29.3652Z" fill="#23648B" style="fill:#23648B;fill:color(display-p3 0.1373 0.3922 0.5451);fill-opacity:1;"/>
<path d="M22.5015 32.9428C22.4578 32.8967 22.4051 32.8601 22.3468 32.8351C22.2884 32.81 22.2256 32.7971 22.1621 32.7971C22.0987 32.7971 22.0359 32.81 21.9775 32.8351C21.9192 32.8601 21.8666 32.8967 21.8228 32.9428L13.5698 41.0871L11.7983 39.2818C11.7539 39.2408 11.7017 39.209 11.6447 39.1882C11.5879 39.1673 11.5275 39.1579 11.467 39.1604C11.4065 39.163 11.3471 39.1774 11.2921 39.2029C11.2372 39.2283 11.1879 39.2644 11.1468 39.309C11.1059 39.3535 11.074 39.4057 11.0532 39.4626C11.0324 39.5195 11.0229 39.5798 11.0255 39.6403C11.028 39.7009 11.0424 39.7603 11.0679 39.8152C11.0933 39.8702 11.1294 39.9195 11.174 39.9605L13.2915 42.0848C13.3825 42.1676 13.5011 42.2135 13.6241 42.2138C13.7432 42.2142 13.8577 42.168 13.9431 42.0848L18.4564 37.619V46.5168H8.48633V36.5127H13.5901C13.7702 36.5127 13.9428 36.4412 14.0701 36.314C14.1974 36.1866 14.2689 36.014 14.2689 35.8341C14.2689 35.654 14.1974 35.4814 14.0701 35.354C13.9428 35.2268 13.7702 35.1553 13.5901 35.1553H7.72619C7.54619 35.1553 7.37355 35.2268 7.24627 35.354C7.11899 35.4814 7.04749 35.654 7.04749 35.8341V47.1955C7.04604 47.2875 7.06334 47.3789 7.09835 47.4642C7.13335 47.5493 7.18531 47.6265 7.25109 47.6909C7.31532 47.7546 7.39164 47.8049 7.47555 47.8387C7.55947 47.8724 7.6493 47.8892 7.73976 47.8877H19.1216C19.3015 47.8877 19.4742 47.8162 19.6015 47.689C19.7287 47.5616 19.8002 47.389 19.8002 47.2091V36.2548L22.5151 33.5943C22.5595 33.5524 22.595 33.5018 22.6195 33.4459C22.644 33.39 22.6569 33.3296 22.6576 33.2685C22.6578 33.2079 22.646 33.1479 22.6226 33.0919C22.5993 33.0359 22.565 32.9853 22.5218 32.9428H22.5015Z" fill="#23648B" style="fill:#23648B;fill:color(display-p3 0.1373 0.3922 0.5451);fill-opacity:1;"/>
</svg>
