<svg width="48" height="48" viewBox="0 0 48 48" fill="none" xmlns="http://www.w3.org/2000/svg">
<g clip-path="url(#clip0_1_789)">
<path fill-rule="evenodd" clip-rule="evenodd" d="M0 2.35483C0.000740565 2.04477 0.0625608 1.73789 0.181929 1.45173C0.301298 1.16557 0.475875 0.905725 0.69569 0.687047C0.915504 0.468368 1.17625 0.29514 1.46303 0.177256C1.7498 0.059372 2.057 -0.000857055 2.36706 9.2333e-06H45.6075C46.2339 -0.0017408 46.8353 0.245344 47.2796 0.686932C47.7238 1.12852 47.9745 1.72846 47.9765 2.35483L48 45.6424C47.9988 46.2687 47.7488 46.869 47.3051 47.3111C46.8614 47.7532 46.2603 48.001 45.6339 48H2.368C2.05769 48.0008 1.75028 47.9404 1.46332 47.8223C1.17636 47.7042 0.915478 47.5307 0.695576 47.3118C0.475674 47.0928 0.301062 46.8327 0.181713 46.5463C0.062364 46.2598 0.000617257 45.9527 0 45.6424L0 2.35483Z" fill="#0079C2" style="fill:#0079C2;fill:color(display-p3 0.0000 0.4745 0.7608);fill-opacity:1;"/>
<path fill-rule="evenodd" clip-rule="evenodd" d="M34.976 17.3788C35.3741 17.7035 35.4795 18.4894 35.4795 19.1934V27.7506C35.4795 28.4 35.4532 29.104 35.0823 29.4833C34.3934 29.0221 33.2546 27.6687 32.9364 26.9647L30.8188 22.7407C31.9576 22.4424 33.4927 21.8466 33.4663 19.7073C33.44 17.5689 32.0894 17.0532 30.7124 17.0532H29.2292L32.6456 7.95577C32.6456 7.95577 35.6913 16.864 35.7176 17.0541H35.1623C34.8179 16.9732 34.8179 17.2433 34.976 17.3788ZM27.6922 17.0268L24.7256 16.9995L25.0437 15.0231C25.0964 14.8066 24.912 14.7247 24.8056 14.9421C24.6993 15.1586 23.7986 15.7271 22.4743 15.7271H20.0903C19.7195 15.7271 19.3487 15.5642 19.3487 14.9148V11.232C20.0376 11.232 22.8452 11.2047 23.2687 11.5567L23.5077 9.60753C22.8979 9.82401 19.8522 9.76942 19.376 9.76942V7.03436C19.376 6.68236 19.5877 6.14024 20.7266 6.14024H22.7124C23.216 6.14024 24.1957 6.35765 24.7793 7.84753C24.8056 7.84753 27.8513 15.4297 27.8513 15.4297C28.0103 15.9162 28.0103 16.7021 27.6922 17.0268ZM20.9383 23.472C20.9383 28.1562 19.6395 28.9148 17.8136 28.9148C15.9849 28.9148 14.7134 28.1562 14.7134 23.472C14.7134 18.7868 16.0122 18.0292 17.839 18.0292C19.6668 18.0292 20.9383 18.7868 20.9383 23.472ZM45.0419 29.0767C44.4856 28.7247 43.3195 27.2085 42.896 26.5854L39.903 22.0367C39.903 22.0367 43.4795 18.3812 43.664 18.1638C43.8757 17.9473 44.4583 17.4061 44.671 17.2979C44.8292 17.2706 44.9628 17.0268 44.7237 17.0268H42.7633C42.4461 17.0268 42.128 17.216 41.9162 17.4334L37.6781 22.1986V18.7868C37.6781 18.3812 37.6517 17.7045 38.0753 17.3515C38.207 17.216 38.207 16.9459 37.9162 16.9995H36.9628L41.6508 4.70589H39.135C39.2668 5.22071 39.4532 5.6 39.0033 6.79059L36.6183 13.3167L33.52 4.70589H31.2941C31.4259 5.22071 31.6113 5.6 31.1614 6.79059L28.9364 12.6673L26.0226 5.49083C25.9172 5.11248 25.6517 4.70589 25.0955 4.70589H16.5666C16.3548 4.70589 16.3812 4.92236 16.5939 4.92236C16.911 4.92236 17.2819 5.40989 17.2819 6.14118V14.9694L11.7995 6.14118C11.5877 5.78918 11.376 5.05789 11.296 4.70589H8.17127C7.95856 4.70589 7.93221 4.89506 8.09127 4.97695C8.25033 5.05789 8.5675 5.54542 8.5675 6.73695V15.1859C8.5675 16.3774 8.09127 16.9732 7.66774 17.0541C7.48233 17.0814 7.53503 17.3252 7.7468 17.3252H9.99809C10.5543 17.3252 10.9515 17.8937 10.6334 18.4621L8.25033 22.768C7.61409 21.8739 5.57456 18.7332 4.43574 17.5417C4.19762 17.2969 3.98586 17.1897 3.61503 17.1897H1.07292C0.834799 17.1897 0.966563 17.3515 1.09927 17.4061C2.13268 17.6772 6.82068 23.3901 6.82068 25.1238V28.1835C6.82068 28.6447 6.47621 29.4287 6.05268 29.5379C5.89362 29.5915 5.86727 29.7807 6.05268 29.7807H7.35056C8.46303 29.7807 8.83386 30.7558 8.83386 31.6226V40.1798C8.83386 40.8838 8.59574 41.6687 8.17127 41.9934C8.0395 42.1289 8.0395 42.4 8.33127 42.3454H14.767C15.0052 42.3454 15.2696 42.3191 15.3496 41.9671L15.7204 40.288C15.7468 40.0433 15.5087 40.0979 15.455 40.2334C15.4023 40.3689 15.0315 41.0193 13.1247 41.0193C13.1247 41.0193 10.8997 41.2358 10.8997 39.8551V31.5144C10.9524 30.5939 11.376 29.6725 11.9068 29.6188C12.0386 29.6188 12.0913 29.3741 11.8795 29.3741C11.6677 29.3741 10.1317 29.4287 9.68092 29.4287C9.36374 29.4287 8.8075 29.2405 8.8075 28.5082V24.6635L12.8329 17.5144C12.9393 17.3515 13.1247 16.9995 12.8066 16.9995H11.1379C10.6616 16.9459 10.2108 16.3501 10.2108 15.1586V7.38636L16.303 17.1897C13.0183 17.8391 12.3303 20.7097 12.3303 23.472C12.3303 26.288 13.0183 29.2668 16.4884 29.8353C16.8593 30.1873 17.072 30.9177 17.072 31.5953V40.1525C17.072 40.8565 16.8329 41.6414 16.4094 41.9671C16.2767 42.1026 16.2767 42.3727 16.5675 42.3191C17.3364 42.2372 19.0315 42.2645 19.5877 42.3191C19.9049 42.3727 19.9049 42.0744 19.7468 41.9671C19.3487 41.6414 19.0842 40.8565 19.0842 40.1525V31.5953C19.0842 30.8913 19.3223 30.1064 19.7468 29.7807C22.5797 28.9421 23.2687 26.0715 23.2687 23.472C23.2687 20.7097 22.6861 17.8664 19.376 17.1897H23.7195C25.2028 17.1897 25.1764 18.4348 25.2028 19.3289V27.7506C25.2028 28.4 24.991 29.104 24.6466 29.4833C23.9576 29.4833 23.4277 29.456 23.216 29.4287C22.8979 29.3751 22.8979 29.6734 23.0569 29.7807C23.4541 30.1064 23.7195 30.8913 23.7195 31.5953V40.1525C23.7195 40.8565 23.4814 41.6414 23.0569 41.9671C22.9252 42.1026 22.9252 42.3727 23.2169 42.3191C23.984 42.2372 25.679 42.2645 26.2353 42.3191C26.5534 42.3727 26.5534 42.0744 26.3953 41.9671C25.9972 41.6414 25.7327 40.8565 25.7327 40.1525V36.2805H28.4875C29.0428 36.2805 29.3346 36.3614 29.7854 36.5242L30.2616 34.5741C29.4146 34.8179 26.2089 34.7906 25.7327 34.7906V30.9186H28.752C29.3082 30.9186 29.7054 31.1078 30.1026 31.3515L30.447 29.8353C30.4997 29.6188 30.447 29.3741 30.2089 29.4287C29.9708 29.4569 28.9637 29.4833 27.7459 29.4833C27.4014 29.104 27.1896 28.4009 27.1896 27.7506V19.1115C27.1896 18.7332 27.3214 18.1374 29.0164 18.1374C30.4997 18.1374 31.2677 18.8141 31.2414 19.8428C31.215 20.8988 30.368 22.0094 29.2019 22.0094C28.6993 22.0094 28.6729 22.416 28.8047 22.768C28.9374 23.0927 31.295 28.7257 31.295 28.7257C31.4532 29.0767 31.7186 29.456 32.3802 29.7271C32.7783 29.8899 33.0428 30.8377 33.0428 31.5417V40.0979C33.0428 40.8028 32.8047 41.5878 32.3802 41.9125C32.2484 42.048 32.2484 42.3191 32.5402 42.2645C33.3073 42.1835 38.5788 42.2108 39.1614 42.2645C39.5849 42.3191 39.8503 42.1026 39.9821 41.7506C40.1148 41.4249 40.3802 39.9906 40.3802 39.9906C40.4329 39.7459 40.1948 39.6377 40.0621 39.8814C39.9303 40.1798 38.8696 40.6937 37.1746 40.6937C35.4804 40.6937 35.135 40.2334 35.1087 39.7195V36.1713H37.8635C38.4197 36.1713 38.7106 36.2532 39.1614 36.416L39.6386 34.4659C38.7906 34.7097 35.5859 34.6824 35.1087 34.6824V30.9177H38.128C38.6842 30.9177 39.0823 31.1078 39.4795 31.3515L39.824 29.8626C39.8767 29.6461 39.824 29.4014 39.5849 29.456L38.1016 29.4833C37.7572 29.104 37.5463 28.4009 37.5463 27.7506V22.4706L41.6508 28.7247C41.9426 29.104 42.128 29.456 42.5779 29.456H44.8828C45.2273 29.456 45.2536 29.2122 45.0419 29.0767Z" fill="white" style="fill:white;fill-opacity:1;"/>
</g>
<defs>
<clipPath id="clip0_1_789">
<rect width="48" height="48" fill="white" style="fill:white;fill-opacity:1;"/>
</clipPath>
</defs>
</svg>
