<svg width="48" height="41" viewBox="0 0 48 41" fill="none" xmlns="http://www.w3.org/2000/svg">
<path d="M29.0263 29.0497C29.4856 28.0572 29.7197 26.9753 29.712 25.8817V23.7629C30.5972 22.929 31.5592 22.1805 32.5851 21.5274C33.0539 22.119 33.649 22.5983 34.3269 22.9301C35.0048 23.2619 35.7484 23.4379 36.5031 23.4451C37.2579 23.4523 38.0047 23.2906 38.6888 22.9719C39.373 22.6531 39.9772 22.1854 40.4571 21.6029C43.4194 23.276 46.4091 26.6909 46.4709 29.4954C46.4709 29.6258 46.4201 29.7511 46.3291 29.8446C46.2382 29.9381 46.1144 29.9924 45.984 29.996C45.7785 29.996 45.5814 30.0776 45.4361 30.223C45.2908 30.3683 45.2091 30.5654 45.2091 30.7709C45.2091 30.9764 45.2908 31.1734 45.4361 31.3188C45.5814 31.4641 45.7785 31.5457 45.984 31.5457C46.5224 31.5349 47.0352 31.3135 47.4121 30.9288C47.789 30.5442 48.0001 30.0271 48 29.4886C47.952 26.06 44.688 22.268 41.3211 20.3137C41.8896 19.2431 42.1863 18.0493 42.1851 16.8371V15.4314C42.1851 11.804 39.6549 8.84169 36.5349 8.84169C33.8537 8.84169 31.5977 11.0429 31.0491 13.9777C30.3672 13.3936 29.6404 12.864 28.8754 12.3937C29.4567 11.308 29.7561 10.0938 29.7463 8.86229V7.44969C29.7463 3.81542 27.216 0.859985 24.096 0.859985C20.976 0.859985 18.4457 3.81542 18.4457 7.44969V8.86229C18.4365 10.1245 18.7555 11.3674 19.3714 12.4691C18.6105 12.9598 17.8863 13.5053 17.2046 14.1011C16.8823 10.8166 14.496 8.25889 11.6091 8.25889C8.50286 8.25889 5.96571 11.2143 5.96571 14.8486V16.2611C5.95743 17.6359 6.33518 18.9854 7.056 20.156C3.91543 21.9869 0 25.964 0 29.66C0 30.2056 0.216734 30.7288 0.602523 31.1146C0.988312 31.5004 1.51155 31.7171 2.05714 31.7171H16.1486C14.2354 33.5891 12.8023 35.948 12.7749 38.3206C12.7749 38.8662 12.9916 39.3894 13.3774 39.7752C13.7632 40.161 14.2864 40.3777 14.832 40.3777H33.6C34.1456 40.3777 34.6688 40.161 35.0546 39.7752C35.4404 39.3894 35.6571 38.8662 35.6571 38.3206C35.6571 35.9549 34.2446 33.5206 32.2971 31.5731H39.1543C39.3421 31.5481 39.5143 31.4557 39.6391 31.3132C39.7639 31.1707 39.8327 30.9877 39.8327 30.7983C39.8327 30.6089 39.7639 30.4259 39.6391 30.2834C39.5143 30.1408 39.3421 30.0485 39.1543 30.0234H31.104L29.0263 29.0497ZM20.0023 7.49089C20.0023 4.70685 21.8331 2.44399 24.1166 2.44399C26.4 2.44399 28.2309 4.70685 28.2309 7.49089V8.89659C28.2309 11.6806 26.4 13.9503 24.1166 13.9503C21.8331 13.9503 20.0023 11.6806 20.0023 8.89659V7.49089ZM7.54286 14.8897C7.54286 12.1126 9.38057 9.84289 11.6571 9.84289C13.9337 9.84289 15.7714 12.1126 15.7714 14.8897V16.3023C15.7714 19.0863 13.9406 21.3491 11.6571 21.3491C9.37371 21.3491 7.54286 19.0863 7.54286 16.3023V14.8897ZM7.49486 30.1537H2.05714C1.99323 30.1541 1.9299 30.1416 1.87097 30.1168C1.81205 30.0921 1.75875 30.0556 1.71429 30.0097C1.61522 29.9188 1.55402 29.794 1.54286 29.66C1.584 26.8349 4.90971 23.1114 8.02971 21.4314C8.99882 22.3794 10.3015 22.9089 11.6571 22.9057C12.9358 22.8769 14.1579 22.3734 15.0857 21.4931C16.314 22.1663 17.4638 22.9735 18.5143 23.9V25.868C18.5066 27.0607 18.789 28.2373 19.3371 29.2966C18.8914 29.5503 18.0069 30.1537 18.0069 30.1537H7.488H7.49486ZM28.1829 25.8817C28.1829 28.6657 26.352 30.9286 24.0686 30.9286C21.7851 30.9286 19.9543 28.6657 19.9543 25.8817V24.4691C19.9543 21.692 21.7851 19.4223 24.0686 19.4223C26.352 19.4223 28.1829 21.692 28.1829 24.4691V25.8817ZM34.1074 38.3069C34.1081 38.4367 34.0591 38.5618 33.9703 38.6566C33.8762 38.7472 33.7512 38.7987 33.6206 38.8006H14.8251C14.7606 38.8006 14.6968 38.7878 14.6372 38.7629C14.5777 38.738 14.5237 38.7015 14.4784 38.6556C14.4331 38.6096 14.3974 38.5551 14.3734 38.4953C14.3493 38.4354 14.3374 38.3714 14.3383 38.3069C14.3383 35.4474 17.3006 32.1903 20.1806 30.5446C20.6686 31.1529 21.2905 31.6405 21.9978 31.9691C22.7051 32.2978 23.4787 32.4588 24.2584 32.4396C25.0381 32.4203 25.8028 32.2214 26.493 31.8582C27.1832 31.495 27.7803 30.9774 28.2377 30.3457C31.056 31.9571 34.1006 35.3857 34.1006 38.3069H34.1074ZM29.3074 22.0691C28.4777 19.6349 26.4823 17.9069 24.0754 17.9069C21.6686 17.9069 19.6114 19.6897 18.8023 22.1926C17.9354 21.5039 17.0186 20.8805 16.0594 20.3274C16.824 19.1425 17.2267 17.7605 17.2183 16.3503V15.4863C18.0561 14.7063 18.9575 13.9975 19.9131 13.3674C20.3887 14.0354 21.0189 14.5784 21.7499 14.9499C22.4808 15.3215 23.2909 15.5107 24.1108 15.5012C24.9307 15.4918 25.7362 15.2841 26.4584 14.8958C27.1807 14.5075 27.7982 13.9502 28.2583 13.2714C29.196 13.8539 30.0796 14.5195 30.8983 15.26V16.892C30.8941 18.0717 31.1715 19.2354 31.7074 20.2863C30.8644 20.8243 30.0664 21.4297 29.3211 22.0966L29.3074 22.0691ZM36.5074 21.9389C34.2583 21.9389 32.3931 19.676 32.3931 16.8989V15.4863C32.3931 12.7023 34.2309 10.4463 36.5074 10.4463C38.784 10.4463 40.6217 12.7023 40.6217 15.4863V16.8989C40.6217 19.6417 38.7909 21.9046 36.5074 21.9046V21.9389Z" fill="#23648B" style="fill:#23648B;fill:color(display-p3 0.1373 0.3922 0.5451);fill-opacity:1;"/>
</svg>
