<svg width="71" height="54" viewBox="0 0 71 54" fill="none" xmlns="http://www.w3.org/2000/svg">
<path d="M15.492 26.5485L9.59926 20.6658C9.47079 20.5487 9.30316 20.4836 9.12926 20.4836C8.95536 20.4836 8.78773 20.5487 8.65926 20.6658C8.54693 20.7947 8.48504 20.9598 8.48504 21.1307C8.48504 21.3018 8.54693 21.4669 8.65926 21.5958L13.5109 26.5485L7.16334 26.609L1.22009 20.7062C1.15372 20.6399 1.07494 20.5872 0.988222 20.5513C0.901509 20.5153 0.80857 20.497 0.714713 20.497C0.620856 20.497 0.527917 20.5153 0.441204 20.5513C0.354491 20.5872 0.275701 20.6399 0.209335 20.7062C0.142967 20.7726 0.090322 20.8514 0.0544042 20.9381C0.0184867 21.0248 0 21.1178 0 21.2117C0 21.3054 0.0184867 21.3984 0.0544042 21.4851C0.090322 21.5718 0.142967 21.6506 0.209335 21.717L5.91001 27.3267L0.259873 32.9364C0.143384 33.0632 0.0787442 33.2292 0.0787442 33.4014C0.0787442 33.5735 0.143384 33.7395 0.259873 33.8663C0.387738 33.9807 0.55327 34.0438 0.724821 34.0438C0.896371 34.0438 1.0619 33.9807 1.18977 33.8663L7.16334 28.0242H13.6322L8.67948 32.9364C8.57962 33.0195 8.50496 33.1289 8.46388 33.252C8.42281 33.3753 8.41696 33.5075 8.447 33.6339C8.47481 33.76 8.53813 33.8756 8.62946 33.9669C8.7208 34.0582 8.83635 34.1216 8.96249 34.1494C9.08885 34.1793 9.2211 34.1734 9.34432 34.1325C9.46754 34.0913 9.57684 34.0167 9.65992 33.9169L15.6234 27.9331H16.9172C17.1172 34.5953 19.7877 40.9451 24.409 45.748C29.0305 50.5507 35.2729 53.4634 41.9225 53.9197C48.5721 54.3759 55.1536 52.3432 60.3879 48.2167C65.622 44.09 69.1345 38.1646 70.2429 31.5922C71.3511 25.0198 69.9756 18.27 66.384 12.6553C62.7924 7.04061 57.2412 2.96202 50.8097 1.2126C44.3782 -0.536828 37.526 0.167891 31.5851 3.18973C25.6442 6.21159 21.0394 11.3346 18.6658 17.5628C18.5679 17.8202 18.5763 18.1058 18.6891 18.357C18.8018 18.6081 19.0098 18.8042 19.2672 18.9021C19.5245 19 19.8101 18.9914 20.0614 18.8787C20.3125 18.7659 20.5085 18.558 20.6064 18.3007C22.8318 12.5543 27.1142 7.8407 32.6211 5.07569C38.128 2.31064 44.4663 1.69171 50.4041 3.33917C56.3419 4.98663 61.4552 8.78287 64.7503 13.9899C68.0453 19.1972 69.2868 25.4434 68.2334 31.5149C67.18 37.5863 63.9069 43.0493 59.0504 46.8421C54.1938 50.635 48.1006 52.4869 41.9548 52.0377C35.8091 51.5886 30.0497 48.8709 25.7961 44.4123C21.5425 39.9537 19.0984 34.0731 18.9386 27.913H25.3165C25.7062 32.5382 27.8431 36.8413 31.2928 39.947C34.7424 43.0527 39.2456 44.7275 43.8862 44.6309C48.5268 44.5344 52.9563 42.6736 56.2737 39.4271C59.5912 36.1806 61.5474 31.7923 61.7443 27.1549C61.6154 22.4545 59.6776 17.9851 56.3347 14.6781C52.992 11.371 48.5018 9.48156 43.8004 9.40339C39.0988 9.32522 34.5484 11.0642 31.0974 14.2582C27.6465 17.4524 25.5612 21.8548 25.2761 26.5485H15.492ZM43.5506 10.5482C47.9864 10.5104 52.2558 12.235 55.4207 15.3432C58.5858 18.4514 60.3876 22.6889 60.4302 27.1245C60.3671 31.4921 58.6126 35.665 55.5354 38.7651C52.4583 41.8652 48.2986 43.651 43.9316 43.7467C39.5646 43.8422 35.3308 42.2402 32.121 39.2777C28.9112 36.3151 26.9756 32.223 26.7215 27.8624H34.1708C34.3487 30.2652 35.4512 32.5054 37.2466 34.1122C39.0421 35.7188 41.3906 36.5668 43.7983 36.4779C46.2061 36.3888 48.4855 35.3698 50.1574 33.6349C51.8293 31.9 52.7635 29.5846 52.7635 27.175C52.7635 24.7657 51.8293 22.4502 50.1574 20.7153C48.4855 18.9804 46.2061 17.9614 43.7983 17.8724C41.3906 17.7833 39.0421 18.6313 37.2466 20.2381C35.4512 21.8447 34.3487 24.0849 34.1708 26.4878H26.7215C26.9274 22.1727 28.794 18.1042 31.9304 15.1336C35.0669 12.1628 39.2306 10.5198 43.5506 10.5482ZM43.7528 26.3766H35.5151C35.6947 24.346 36.6509 22.463 38.1847 21.12C39.7183 19.777 41.7109 19.0775 43.7475 19.1675C45.7841 19.2574 47.7075 20.1298 49.1168 21.6027C50.5261 23.0756 51.3128 25.0355 51.3128 27.0741C51.3128 29.1126 50.5261 31.0725 49.1168 32.5454C47.7075 34.0183 45.7841 34.8907 43.7475 34.9806C41.7109 35.0705 39.7183 34.3711 38.1847 33.0281C36.6509 31.685 35.6947 29.802 35.5151 27.7715L43.7729 27.7108C43.9162 27.6674 44.0415 27.5791 44.1307 27.4591C44.2199 27.3389 44.2681 27.1933 44.2682 27.0437C44.2666 26.8945 44.2178 26.7497 44.1288 26.6298C44.0399 26.51 43.9153 26.4214 43.7729 26.3766H43.7528Z" fill="#23648B" style="fill:#23648B;fill:color(display-p3 0.1373 0.3922 0.5451);fill-opacity:1;"/>
</svg>
